<?xml version="1.0" encoding="UTF-8"?>
<svg id="Layer_1" xmlns="http://www.w3.org/2000/svg" version="1.1" viewBox="0 0 1024 1024">
  <!-- Generator: Adobe Illustrator 29.3.1, SVG Export Plug-In . SVG Version: 2.1.0 Build 151)  -->
  <defs>
    <style>
      .st0 {
        fill: #fff;
      }
    </style>
  </defs>
  <path class="st0" d="M723.9,305.2c0,17.728,14.416,32.1,32.2,32.1s32.2-14.372,32.2-32.1-14.416-32.1-32.2-32.1-32.2,14.372-32.2,32.1h0Z"/>
  <path class="st0" d="M940.1,426.7l-65.3-58.5c-.7-.7-1.5-1.4-2.2-2l-.2-.2c-5.5-4.4-12.6-7.1-20.2-7.1-17.8,0-32.2,14.4-32.2,32.1,0,10.6,5.2,20,13.2,25.9l33.9,30.4h-66.1l-.1.1c-17.7.1-32.1,14.4-32.1,32.1l-.2.2v36.2h.5v283.8c0,35.2-28.8,64-64,64h-64.9v-283.7c0-35.2-28.8-64-64-64h-129c-35.2,0-64,28.8-64,64v283.7h-63.1c-35.2,0-64-28.8-64-64v-292.3h-.1v-27.8l-.1-.1v-.1c0-17.7-14.4-32.1-32.2-32.1h-.1l-.1-.1h-66.9L511.3,129l129.6,116,.1-.1c5.4,4,12.1,6.4,19.3,6.4,17.8,0,32.2-14.4,32.2-32.1,0-10-4.6-18.9-11.8-24.8l-123.7-110.8c-11.6-11.9-27.8-19.3-45.7-19.3-18.9,0-35.9,8.2-47.5,21.3h-.2L84.7,425.8c-3,2.2-5.8,4.6-8.3,7.4-7.4,8.4-11.9,19.4-11.9,31.5,0,26.4,21.5,47.8,48,47.8h79.6v288.1c0,69.8,57.1,127,127,127h127.8v-316.8c0-17.6,14.4-32,32-32h65.5c17.6,0,32,14.4,32,32v316.8h63.8v-.1h63.5c70.4,0,128-57.6,128-128v-286.9h79.4c26.5,0,48-21.4,48-47.8,0-15.6-7.5-29.4-19-38.1h0Z"/>
</svg>