<?xml version="1.0" encoding="UTF-8"?>
<svg id="Layer_1" xmlns="http://www.w3.org/2000/svg" version="1.1" xmlns:xlink="http://www.w3.org/1999/xlink" viewBox="0 0 800 800">
  <!-- Generator: Adobe Illustrator 29.3.1, SVG Export Plug-In . SVG Version: 2.1.0 Build 151)  -->
  <defs>
    <style>
      .st0 {
        fill: #fff;
      }
    </style>
  </defs>
  <path class="st0" d="M303,400c-53.5,0-97-43.5-97-97s-16.3-36.4-36.4-36.4-36.4,16.3-36.4,36.4c0,93.6,76.1,169.7,169.7,169.7s36.4-16.3,36.4-36.4-16.3-36.4-36.4-36.4Z"/>
  <path class="st0" d="M789.3,737.9l-247.9-247.9c40.5-51.5,64.7-116.5,64.7-186.9C606.1,135.9,470.1,0,303,0S0,135.9,0,303s135.9,303,303,303,135.4-24.2,186.9-64.7l247.9,247.9c7.1,7.1,16.4,10.7,25.7,10.7s18.6-3.5,25.7-10.7c14.2-14.2,14.2-37.2,0-51.4ZM72.7,303c0-127,103.3-230.3,230.3-230.3s230.3,103.3,230.3,230.3-103.3,230.3-230.3,230.3-230.3-103.3-230.3-230.3Z"/>
</svg>