<?xml version="1.0" encoding="UTF-8"?>
<svg id="Layer_1" xmlns="http://www.w3.org/2000/svg" version="1.1" viewBox="0 0 25.6 25.6">
  <!-- Generator: Adobe Illustrator 29.3.1, SVG Export Plug-In . SVG Version: 2.1.0 Build 151)  -->
  <defs>
    <style>
      .st0 {
        fill: #fff;
      }
    </style>
  </defs>
  <path class="st0" d="M13.398,0c.079.063.239.073.343.087,1.734.239,3.857,2.313,3.857,4.138v2.175h4.225c.018,0,.268.173.3.2.262.222.277.453.324.776l1.55,17.05c.015.366.041.603-.198.901-.083.104-.245.121-.251.274H2.098c-.47-.356-.523-.602-.5-1.174L3.148,7.376c.046-.343.08-.604.375-.825.037-.028.235-.15.25-.15h4.225v-2.175c0-1.357,1.349-3.03,2.499-3.651C11.008.298,11.539.133,12.098,0h1.3ZM15.998,6.4v-1.775c0-1.643-1.638-3.039-3.225-3.029-1.552.009-3.175,1.426-3.175,3.029v1.775s6.4,0,6.4,0ZM7.998,8h-3.25l-1.45,16h19l-1.45-16h-3.25v1.775c0,.029.356.296.425.375.72.82.377,2.125-.614,2.537-1.558.648-2.918-1.268-1.837-2.537.077-.091.426-.346.426-.374v-1.775h-6.4v1.775c0,.029.356.296.425.375.72.82.377,2.125-.614,2.537-1.558.648-2.918-1.268-1.837-2.537.077-.091.426-.346.426-.374v-1.777Z"/>
</svg>