<?xml version="1.0" encoding="UTF-8"?>
<svg id="Layer_1" xmlns="http://www.w3.org/2000/svg" version="1.1" viewBox="0 0 4000 4000">
  <!-- Generator: Adobe Illustrator 29.3.1, SVG Export Plug-In . SVG Version: 2.1.0 Build 151)  -->
  <defs>
    <style>
      .st0 {
        fill: #fefefe;
      }
    </style>
  </defs>
  <path class="st0" d="M3130.217,1193.622c0,626.517-507.892,1134.41-1134.41,1134.41s-1134.41-507.892-1134.41-1134.41S1369.29,59.213,1995.808,59.213s1134.41,507.892,1134.41,1134.41ZM2862.07,1193.726c0-478.457-387.866-866.323-866.323-866.323s-866.323,387.866-866.323,866.323,387.866,866.323,866.323,866.323,866.323-387.866,866.323-866.323Z"/>
  <path class="st0" d="M1300.902,2503.875c457.773-14.881,922.298,9.511,1380.772-.978,692.458,7.076,1264.053,551.621,1305.663,1242.776,2.457,40.804,6.269,103.817-.465,142.781-22.141,128.119-195.36,152.653-251.854,38.033-22.267-45.178-11.608-97.454-13.68-146.491-23.08-546.338-467.972-988.136-1013.941-1008.221h-1424.616c-494.502,17.443-920.629,392.178-998.691,880.461-12.007,75.103-7.123,137.877-12.302,210.794-13.2,185.842-254.499,172.596-268.783,17.145-16.859-183.481,39.397-427.892,113.857-595.381,211.065-474.764,666.6-764.098,1184.04-780.918Z"/>
</svg>